<svg viewBox="0 0 150 150" fill="none" xmlns="http://www.w3.org/2000/svg">
    <style>
        @media(prefers-color-scheme:dark){.text{fill:#fff}}
        @media(prefers-color-scheme:light){.text{fill:#101010}}
    </style>
    <rect width="150" height="150" fill="#0F766E"/>
    <path
        d="M.759941 5.24864C-1.67735 2.26969 2.26966-1.67736 5.24859.759936L73.1833 56.3423C74.4097 57.3457 76.1492 57.426 77.4628 56.5396L114.566 31.5048c2.907-1.9613 6.389 1.5215 4.428 4.4283L93.9585 73.0383C93.0727 74.3511 93.1522 76.0892 94.1541 77.3156L149.242 144.753C151.675 147.731 147.732 151.675 144.753 149.241L77.3156 94.154C76.0891 93.1522 74.351 93.0728 73.0383 93.9585L35.933 118.995C33.0264 120.956 29.5435 117.473 31.5048 114.567L56.5396 77.4628C57.4259 76.1493 57.3457 74.4098 56.3422 73.1833L.759941 5.24864z"
        fill="#fff" />
</svg>